<svg width="66" height="65" viewBox="0 0 66 65" fill="none" xmlns="http://www.w3.org/2000/svg">
<path d="M61.7561 24.0865L62.7284 22.3324C62.9872 21.8654 62.8185 21.2769 62.3514 21.0182C61.9625 20.8026 61.4905 20.8844 61.1936 21.1868C56.9562 8.60657 45.1238 0.00390625 31.6635 0.00390625C23.3394 0.00390625 15.5135 3.24542 9.62758 9.13149C3.74152 15.0176 0.5 22.8433 0.5 31.1674C0.5 38.2523 2.81725 44.9288 7.20102 50.475C11.4528 55.8541 17.4363 59.7312 24.0494 61.392C25.4691 61.7486 26.9398 61.9694 28.5457 62.067C28.5657 62.0682 28.5856 62.0688 28.6053 62.0688C29.1125 62.0688 29.5382 61.6737 29.5694 61.1606C29.6017 60.6276 29.1961 60.1695 28.663 60.137C27.1779 60.0467 25.8228 59.8439 24.5204 59.5167C11.5161 56.2505 2.43362 44.593 2.43362 31.1674C2.43362 15.05 15.5461 1.93752 31.6635 1.93752C44.2494 1.93752 55.318 9.95547 59.324 21.6939C58.9289 21.6243 58.5163 21.8064 58.3109 22.1767C58.0521 22.6436 58.2208 23.2322 58.6877 23.4909L60.4146 24.4482C60.466 24.4789 60.8008 24.6711 61.2052 24.5418C61.5583 24.4292 61.7216 24.1493 61.7561 24.0865Z" fill="#D3CDBF"/>
<path d="M48.1088 10.1013L10.7256 47.4846C10.348 47.8623 10.348 48.4744 10.7256 48.852C10.9143 49.0407 11.1618 49.135 11.4092 49.135C11.6565 49.135 11.904 49.0407 12.0928 48.852L49.476 11.4687C49.8536 11.091 49.8536 10.4789 49.476 10.1013C49.0985 9.72403 48.4863 9.72403 48.1088 10.1013Z" fill="#D3CDBF"/>
<path d="M12.8726 16.4355C8.90922 16.4355 7.56252 21.5944 9.65237 21.5944C10.1861 21.5944 10.6192 21.162 10.6192 20.6276C10.6192 19.3851 11.6301 18.3743 12.8725 18.3743C14.9453 18.3743 15.9188 20.9587 14.3525 22.327L9.01364 26.9921C8.34306 27.5781 8.75891 28.6868 9.6498 28.6868H16.0952C16.6291 28.6868 17.062 28.2491 17.062 27.715C17.062 27.1809 16.6291 26.7482 16.0952 26.7482H12.2349L15.6279 23.787C18.5318 21.2527 16.7406 16.4355 12.8726 16.4355Z" fill="#46525E"/>
<path d="M26.7934 24.1694H25.1869L25.1819 17.4034C25.1814 16.8697 24.7487 16.4375 24.2151 16.4375C23.6814 16.4375 23.2483 16.8701 23.2483 17.4043V24.1694H19.7802C19.8002 24.1119 21.3795 19.5769 21.3951 19.5181C21.7377 18.2139 19.9599 17.7489 19.5636 18.8911L17.5034 24.8241C17.2855 25.4519 17.7524 26.108 18.4167 26.108H23.248C23.2477 27.7635 23.165 28.0359 23.5324 28.403C24.1406 29.0116 25.1868 28.5755 25.1868 27.7169V26.1082H26.7932C27.3273 26.1082 27.76 25.6754 27.76 25.1414C27.7602 24.5877 27.3148 24.1694 26.7934 24.1694Z" fill="#46525E"/>
<path d="M42.4992 32.3581C42.3232 32.0735 42.0124 31.9004 41.6778 31.9004H35.7568C35.2234 31.9004 34.791 32.3327 34.791 32.8662C34.791 33.3996 35.2234 33.8319 35.7568 33.8319H40.1162L35.6624 42.7543C35.4242 43.2315 35.618 43.8115 36.0952 44.0497C36.2338 44.1189 36.3808 44.1517 36.5257 44.1517C36.8802 44.1517 37.2216 43.9557 37.3906 43.6171L42.5418 33.2976C42.6914 32.998 42.6753 32.6428 42.4992 32.3581Z" fill="#46525E"/>
<path d="M56.9998 27.325C55.3349 27.6277 54.1257 29.0775 54.1257 30.7696V33.9483C54.1257 35.6409 55.3361 37.0912 57.0013 37.3939L57.3878 37.4642C55.6262 46.9206 48.3706 54.4687 39.0699 56.658C38.8332 54.9228 37.3511 53.6291 35.5998 53.6291H31.4009C29.6497 53.6291 28.1677 54.9224 27.9312 56.6575C27.2431 61.7036 31.1239 65.2264 35.3462 64.9848C51.618 64.054 64.6367 50.9991 65.4901 34.6902C65.7222 30.2527 61.8463 26.4438 56.9998 27.325Z" fill="#6C7A88"/>
<path d="M35.3463 64.9841C51.6181 64.0532 64.6367 50.9983 65.4901 34.6894C65.561 33.3341 65.2471 32.0383 64.641 30.916C62.9901 31.2855 61.7208 32.7161 61.6282 34.4875C60.8765 48.8511 49.4828 60.302 35.1255 61.1233C33.3561 61.2245 31.9338 62.5005 31.5703 64.15C32.7051 64.7582 34.0082 65.0606 35.3463 64.9841Z" fill="#596775"/>
</svg>
