<svg width="66" height="65" viewBox="0 0 66 65" fill="none" xmlns="http://www.w3.org/2000/svg">
<g clipPath="url(#clip0_359_3663)">
<path d="M65.1517 24.2826C64.9096 24.0226 64.5607 23.8885 64.2055 23.8885H60.3065C58.732 17.373 55.0504 11.4686 49.8506 7.16219C44.2775 2.54706 37.2175 0.00380859 29.9693 0C29.8499 0 29.7294 0.0255176 29.6277 0.0881055C29.3534 0.25708 29.255 0.580811 29.3587 0.857568L32.8393 10.1463C32.9321 10.3943 33.169 10.5584 33.4337 10.5584C41.6644 10.5584 48.8763 16.0847 51.0995 23.8885H47.7517C47.3964 23.8885 47.0476 24.0226 46.8055 24.2826C46.3493 24.7726 46.3515 25.4909 46.7513 25.9707L55.0033 35.873C55.2445 36.1625 55.6019 36.3299 55.9787 36.3299C56.3555 36.3299 56.7127 36.1626 56.954 35.873L65.206 25.9707C65.6057 25.4909 65.6078 24.7726 65.1517 24.2826Z" fill="#507BE9"/>
<path d="M29.3184 29.834C37.0309 29.834 43.2832 23.5817 43.2832 15.8691C43.2832 8.15657 37.0309 1.9043 29.3184 1.9043C21.6058 1.9043 15.3535 8.15657 15.3535 15.8691C15.3535 23.5817 21.6058 29.834 29.3184 29.834Z" fill="#FFEE78"/>
<path d="M43.2832 15.8691C43.2832 8.15661 37.0309 1.9043 29.3184 1.9043V29.834C37.0309 29.834 43.2832 23.5817 43.2832 15.8691Z" fill="#FCD232"/>
<path d="M29.3184 31.7383C20.5681 31.7383 13.4492 24.6194 13.4492 15.8691C13.4492 7.1189 20.5681 0 29.3184 0C38.0686 0 45.1875 7.1189 45.1875 15.8691C45.1875 24.6194 38.0686 31.7383 29.3184 31.7383ZM29.3184 3.80859C22.6682 3.80859 17.2578 9.21896 17.2578 15.8691C17.2578 22.5193 22.6682 27.9297 29.3184 27.9297C35.9685 27.9297 41.3789 22.5193 41.3789 15.8691C41.3789 9.21896 35.9685 3.80859 29.3184 3.80859Z" fill="#FCD232"/>
<path d="M41.3789 15.8691C41.3789 22.5193 35.9685 27.9297 29.3184 27.9297V31.7383C38.0686 31.7383 45.1875 24.6194 45.1875 15.8691C45.1875 7.1189 38.0686 0 29.3184 0V3.80859C35.9685 3.80859 41.3789 9.21896 41.3789 15.8691Z" fill="#F7B90F"/>
<path d="M34.3965 19.043C34.3965 16.2429 32.1184 13.9648 29.3184 13.9648C28.6183 13.9648 28.0488 13.3953 28.0488 12.6953C28.0488 11.9953 28.6183 11.4258 29.3184 11.4258C29.9196 11.4258 30.4427 11.8521 30.562 12.4395C30.7712 13.4701 31.7771 14.136 32.8073 13.9268C33.8379 13.7174 34.5038 12.7122 34.2945 11.6815C33.9491 9.9808 32.7616 8.61732 31.2227 7.99068V7.61719C31.2227 6.56551 30.37 5.71289 29.3184 5.71289C28.2667 5.71289 27.4141 6.56551 27.4141 7.61719V7.98903C25.5551 8.74402 24.2402 10.5685 24.2402 12.6953C24.2402 15.4954 26.5183 17.7734 29.3184 17.7734C30.0184 17.7734 30.5879 18.3429 30.5879 19.043C30.5879 19.743 30.0184 20.3125 29.3184 20.3125C28.7171 20.3125 28.1941 19.8862 28.0747 19.2988C27.8655 18.2682 26.8604 17.6026 25.8294 17.8115C24.7987 18.0209 24.133 19.0261 24.3422 20.0568C24.6876 21.7575 25.8751 23.1211 27.4139 23.7477V24.1211C27.4139 25.1728 28.2666 26.0254 29.3182 26.0254C30.3699 26.0254 31.2225 25.1728 31.2225 24.1211V23.7492C33.0816 22.9943 34.3965 21.1697 34.3965 19.043Z" fill="#FCD232"/>
<path d="M29.3184 13.9648V17.7734C30.0184 17.7734 30.5879 18.3429 30.5879 19.043C30.5879 19.743 30.0184 20.3125 29.3184 20.3125V26.0254C30.37 26.0254 31.2227 25.1728 31.2227 24.1211V23.7492C33.0816 22.9943 34.3965 21.1698 34.3965 19.043C34.3965 16.2429 32.1184 13.9648 29.3184 13.9648Z" fill="#F7B90F"/>
<path d="M30.562 12.4395C30.7712 13.4701 31.7771 14.136 32.8073 13.9268C33.8379 13.7174 34.5038 12.7122 34.2945 11.6815C33.9491 9.9808 32.7616 8.61732 31.2227 7.99068V7.61719C31.2227 6.56551 30.37 5.71289 29.3184 5.71289V11.4258C29.9196 11.4258 30.4427 11.8521 30.562 12.4395Z" fill="#F7B90F"/>
<path d="M64.696 44.5533C63.2885 42.5431 60.5178 42.0546 58.5077 43.4621L44.8864 52.9999C44.3528 53.3735 43.7173 53.5738 43.066 53.5738H33V62.4605H43.8664C45.8205 62.4605 47.7271 61.8594 49.3277 60.7386L63.6047 50.7416C65.615 49.3341 66.1037 46.5635 64.696 44.5533Z" fill="#FABE8C"/>
<path d="M44.8864 53.0011C44.3528 53.3747 43.7173 53.575 43.066 53.575L33 52.7945V57.3836H43.2832C47.8333 57.3836 51.5352 53.6818 51.5352 49.1317C51.5352 48.8751 51.5217 48.6217 51.4987 48.3711L44.8864 53.0011Z" fill="#E6A578"/>
<path d="M64.696 44.5537C63.2885 42.5435 60.5178 42.055 58.5077 43.4625L47.0518 51.4841C47.4789 50.8014 47.7266 49.9953 47.7266 49.1309C47.7266 46.6769 45.7372 44.6875 43.2832 44.6875H32.4922L31.2501 43.7559C28.7764 41.9006 25.7112 40.8789 22.619 40.8789C20.0123 40.8789 17.4532 41.5877 15.2181 42.9288C15.2181 42.9288 13.1004 44.1995 11.8345 44.9589C11.2609 45.3031 10.9102 45.9229 10.9102 46.5918V60.5566C10.9102 61.6083 11.7628 62.4609 12.8145 62.4609H43.8664C45.8205 62.4609 47.7271 61.8598 49.3277 60.7389L63.6047 50.742C65.615 49.3345 66.1037 46.5639 64.696 44.5537Z" fill="#FFD2AA"/>
<path d="M33 62.4605H43.8664C45.8205 62.4605 47.7271 61.8594 49.3277 60.7386L63.6047 50.7416C65.6149 49.3341 66.1034 46.5635 64.6959 44.5533C63.2883 42.5431 60.5177 42.0546 58.5075 43.4621L47.0517 51.4837C47.4789 50.8011 47.7266 49.9949 47.7266 49.1305C47.7266 46.6765 45.7372 44.6871 43.2832 44.6871H33V62.4605Z" fill="#FABE8C"/>
<path d="M51.4987 48.3711L47.0518 51.4849C47.0243 51.5289 46.9967 51.5731 46.9676 51.616C46.1692 52.7979 44.8169 53.575 43.2832 53.575H29.9531C28.9014 53.575 28.0488 54.4276 28.0488 55.4793C28.0488 56.531 28.9014 57.3836 29.9531 57.3836H43.2832C47.8333 57.3836 51.5352 53.6818 51.5352 49.1317C51.5352 48.8751 51.5217 48.6217 51.4987 48.3711Z" fill="#FABE8C"/>
<path d="M12.8145 65H2.4043C1.35262 65 0.5 64.1474 0.5 63.0957V41.5137C0.5 40.462 1.35262 39.6094 2.4043 39.6094H12.8145C13.8661 39.6094 14.7188 40.462 14.7188 41.5137V63.0957C14.7188 64.1474 13.8661 65 12.8145 65Z" fill="#6496F7"/>
<path d="M51.4987 48.3711L47.0518 51.4849C47.0243 51.5289 46.9967 51.5731 46.9676 51.616C46.1692 52.7979 44.8169 53.575 43.2832 53.575H33V57.3836H43.2832C47.8333 57.3836 51.5352 53.6818 51.5352 49.1317C51.5352 48.8751 51.5217 48.6217 51.4987 48.3711Z" fill="#E6A578"/>
</g>
<defs>
<clipPath id="clip0_359_3663">
<rect width="65" height="65" fill="white" transform="translate(0.5)"/>
</clipPath>
</defs>
</svg>
