<svg width="26" height="26" viewBox="0 0 26 26" fill="none" xmlns="http://www.w3.org/2000/svg">
<g clip-path="url(#clip0_359_2550)">
<path d="M0.5 13C0.5 10.7333 1.05835 8.64167 2.175 6.725C3.29168 4.80833 4.80835 3.29168 6.725 2.175C8.64167 1.05832 10.7333 0.5 13 0.5C15.2667 0.5 17.3584 1.05832 19.275 2.175C21.1917 3.29168 22.7084 4.80833 23.825 6.725C24.9417 8.64167 25.5 10.7333 25.5 13C25.5 15.2667 24.9417 17.3583 23.825 19.275C22.7084 21.1917 21.1917 22.7083 19.275 23.825C17.3584 24.9417 15.2667 25.5 13 25.5C10.7333 25.5 8.64167 24.9417 6.725 23.825C4.80835 22.7083 3.29168 21.1917 2.175 19.275C1.05835 17.3583 0.5 15.2667 0.5 13ZM2.575 13C2.575 15.6 3.45 17.8917 5.2 19.875C6 18.3083 7.26667 16.8167 9 15.4C10.7333 13.9833 12.425 13.0917 14.075 12.725C13.825 12.1417 13.5834 11.6167 13.35 11.15C10.4833 12.0667 7.38335 12.525 4.05 12.525C3.4 12.525 2.91668 12.5167 2.6 12.5C2.6 12.5667 2.59585 12.65 2.5875 12.75C2.57917 12.85 2.575 12.9333 2.575 13ZM2.9 10.425C3.26667 10.4583 3.80835 10.475 4.525 10.475C7.30835 10.475 9.95 10.1 12.45 9.35C11.1834 7.1 9.79168 5.225 8.275 3.725C6.95835 4.39167 5.82917 5.31668 4.8875 6.5C3.94585 7.68333 3.28335 8.99168 2.9 10.425ZM6.625 21.225C8.50835 22.6917 10.6334 23.425 13 23.425C14.2333 23.425 15.4584 23.1917 16.675 22.725C16.3417 19.875 15.6917 17.1167 14.725 14.45C13.1917 14.7833 11.6459 15.625 10.0875 16.975C8.52917 18.325 7.375 19.7417 6.625 21.225ZM10.45 2.925C11.9167 4.44167 13.275 6.33332 14.525 8.6C16.7917 7.65 18.5 6.44168 19.65 4.975C17.7167 3.375 15.5 2.575 13 2.575C12.15 2.575 11.3 2.69167 10.45 2.925ZM15.425 10.375C15.675 10.9083 15.9584 11.5833 16.275 12.4C17.5084 12.2833 18.85 12.225 20.3 12.225C21.3334 12.225 22.3584 12.25 23.375 12.3C23.2417 10.0333 22.425 8.01667 20.925 6.25C19.8417 7.86667 18.0084 9.24168 15.425 10.375ZM16.9 14.15C17.75 16.6167 18.325 19.15 18.625 21.75C19.9417 20.9 21.0167 19.8083 21.85 18.475C22.6833 17.1417 23.1833 15.7 23.35 14.15C22.1334 14.0667 21.025 14.025 20.025 14.025C19.1084 14.025 18.0667 14.0667 16.9 14.15Z" fill="#464646"/>
</g>
<defs>
<clipPath id="clip0_359_2550">
<rect width="25" height="25" fill="white" transform="translate(0.5 0.5)"/>
</clipPath>
</defs>
</svg>
