<svg width="22" height="23" viewBox="0 0 22 23" fill="none" xmlns="http://www.w3.org/2000/svg">
<g clipPath="url(#clip0_359_2556)">
<path d="M7.33421 11.5C7.33421 9.47503 8.97539 7.83304 11.0004 7.83304C13.0255 7.83304 14.6675 9.47503 14.6675 11.5C14.6675 13.525 13.0255 15.167 11.0004 15.167C8.97539 15.167 7.33421 13.525 7.33421 11.5ZM5.35185 11.5C5.35185 14.6196 7.88072 17.1484 11.0004 17.1484C14.1202 17.1484 16.649 14.6196 16.649 11.5C16.649 8.3804 14.1202 5.85163 11.0004 5.85163C7.88072 5.85163 5.35185 8.3804 5.35185 11.5ZM15.5526 5.62767C15.5523 6.35669 16.1431 6.94791 16.8721 6.9482C17.6012 6.94849 18.1924 6.35774 18.1927 5.62873C18.193 4.89971 17.6022 4.30849 16.8732 4.3082C16.1445 4.30854 15.5532 4.899 15.5526 5.62767ZM6.55626 20.4537C5.48376 20.4049 4.90083 20.2263 4.51344 20.0753C3.99985 19.8754 3.6334 19.6373 3.24812 19.2525C2.86284 18.8678 2.62435 18.5017 2.42529 17.9882C2.27427 17.601 2.09563 17.0179 2.04687 15.9454C1.99354 14.7859 1.9829 14.4376 1.9829 11.5001C1.9829 8.56256 1.99442 8.21522 2.04687 7.05477C2.09572 5.98231 2.27568 5.40037 2.42529 5.01202C2.62523 4.49846 2.86337 4.13202 3.24812 3.74676C3.63287 3.3615 3.99897 3.12302 4.51344 2.92396C4.90065 2.77295 5.48376 2.59431 6.55626 2.54556C7.7158 2.49223 8.06412 2.48158 11.0004 2.48158C13.9368 2.48158 14.2854 2.49311 15.4459 2.54556C16.5184 2.5944 17.1004 2.77436 17.4888 2.92396C18.0024 3.12302 18.3688 3.36202 18.7541 3.74676C19.1394 4.1315 19.377 4.49846 19.5769 5.01202C19.7279 5.39922 19.9066 5.98231 19.9553 7.05477C20.0087 8.21522 20.0193 8.56256 20.0193 11.5001C20.0193 14.4376 20.0087 14.785 19.9553 15.9454C19.9065 17.0179 19.727 17.6008 19.5769 17.9882C19.377 18.5017 19.1388 18.8682 18.7541 19.2525C18.3693 19.6369 18.0024 19.8754 17.4888 20.0753C17.1015 20.2263 16.5184 20.405 15.4459 20.4537C14.2864 20.5071 13.9381 20.5177 11.0004 20.5177C8.0628 20.5177 7.71544 20.5071 6.55626 20.4537ZM6.46518 0.566616C5.29412 0.619944 4.4939 0.805624 3.79506 1.07754C3.07132 1.35835 2.45864 1.73508 1.8464 2.34633C1.23416 2.95758 0.858386 3.5712 0.577567 4.29491C0.305636 4.99416 0.119949 5.7939 0.0666187 6.96492C0.0124085 8.13778 0 8.51275 0 11.5C0 14.4872 0.0124085 14.8622 0.0666187 16.0351C0.119949 17.2062 0.305636 18.0058 0.577567 18.7051C0.858386 19.4284 1.23425 20.0427 1.8464 20.6537C2.45855 21.2647 3.07132 21.6409 3.79506 21.9225C4.49522 22.1944 5.29412 22.3801 6.46518 22.4334C7.63871 22.4867 8.01307 22.5 11.0004 22.5C13.9878 22.5 14.3628 22.4876 15.5357 22.4334C16.7069 22.3801 17.5065 22.1944 18.2058 21.9225C18.9291 21.6409 19.5422 21.2649 20.1545 20.6537C20.7667 20.0424 21.1417 19.4284 21.4233 18.7051C21.6952 18.0058 21.8818 17.2061 21.9343 16.0351C21.9876 14.8613 22 14.4872 22 11.5C22 8.51275 21.9876 8.13778 21.9343 6.96492C21.8809 5.79382 21.6952 4.99372 21.4233 4.29491C21.1417 3.57164 20.7658 2.95854 20.1545 2.34633C19.5432 1.73411 18.9291 1.35835 18.2067 1.07754C17.5065 0.805624 16.7068 0.619064 15.5366 0.566616C14.3637 0.513288 13.9887 0.5 11.0013 0.5C8.01395 0.5 7.63871 0.512408 6.46518 0.566616Z" fill="#464646"/>
</g>
<defs>
<clipPath id="clip0_359_2556">
<rect width="22" height="22" fill="white" transform="translate(0 0.5)"/>
</clipPath>
</defs>
</svg>
