<svg width="24" height="23" viewBox="0 0 24 23" fill="none" xmlns="http://www.w3.org/2000/svg">
<g clip-path="url(#clip0_359_2561)">
<path d="M0 3.11363C0 2.35604 0.267463 1.73104 0.802365 1.23864C1.33727 0.746204 2.03267 0.5 2.88851 0.5C3.72909 0.5 4.40918 0.742409 4.92881 1.22727C5.46371 1.72727 5.73118 2.37877 5.73118 3.18181C5.73118 3.90909 5.47137 4.51513 4.95174 4.99999C4.41684 5.49999 3.7138 5.74999 2.84266 5.74999H2.81974C1.97916 5.74999 1.29907 5.49999 0.77944 4.99999C0.259806 4.49999 0 3.8712 0 3.11363ZM0.298021 23V7.81817H5.38731V23H0.298021ZM8.20705 23H13.2963V14.5227C13.2963 13.9924 13.3575 13.5833 13.4797 13.2954C13.6937 12.7803 14.0185 12.3447 14.454 11.9886C14.8896 11.6326 15.436 11.4545 16.0931 11.4545C17.8049 11.4545 18.6607 12.5985 18.6607 14.8863V23H23.75V14.2954C23.75 12.053 23.2151 10.3523 22.1453 9.19317C21.0754 8.03408 19.6618 7.45453 17.9042 7.45453C15.9327 7.45453 14.3967 8.29544 13.2963 9.97726V10.0227H13.2734L13.2963 9.97726V7.81817H8.20705C8.23761 8.30301 8.2529 9.81058 8.2529 12.3409C8.2529 14.8712 8.23761 18.4242 8.20705 23Z" fill="#464646"/>
</g>
<defs>
<clipPath id="clip0_359_2561">
<rect width="23.75" height="22.5" fill="white" transform="translate(0 0.5)"/>
</clipPath>
</defs>
</svg>
