<svg width="50" height="65" viewBox="0 0 50 65" fill="none" xmlns="http://www.w3.org/2000/svg">
<path d="M8.44471 36.5391L0.604004 58.7722L8.49251 58.6954L18.2211 36.5391H8.44471Z" fill="#80AAFF"/>
<path d="M18.2209 36.5391L12.0986 59.9342L18.2646 65.0007L24.9999 45.294V36.5391H18.2209Z" fill="#80AAFF"/>
<path d="M16.0918 36.5391L8.49268 58.6954L10.5669 58.6753L12.0991 59.9342L20.1231 36.5391H16.0918Z" fill="#EAF1FF"/>
<path d="M41.5562 36.5391L49.3969 58.7722L41.5084 58.6954L31.7798 36.5391H41.5562Z" fill="#6680FF"/>
<path d="M31.7795 36.5391L37.9017 59.9342L31.7358 65.0007L25.0005 45.294V36.5391H31.7795Z" fill="#6680FF"/>
<path d="M33.9088 36.5391L41.5078 58.6954L39.4336 58.6753L37.9014 59.9342L29.8774 36.5391H33.9088Z" fill="#B3CCFF"/>
<path d="M24.9994 1.90625L23.6436 23.0483L24.9994 43.3854C36.4536 43.3854 45.739 34.1 45.739 22.6459C45.739 11.1917 36.4536 1.90625 24.9994 1.90625Z" fill="#EAF1FF"/>
<path d="M4.25977 22.6459C4.25977 34.1 13.5452 43.3854 24.9994 43.3854V1.90625C13.5452 1.90625 4.25977 11.1917 4.25977 22.6459Z" fill="#F9F9F9"/>
<path d="M47.6457 22.6462C47.6457 10.159 37.4865 0 24.9994 0L23.6436 1.35585L24.9994 3.8132C35.3839 3.8132 43.8324 12.2616 43.8324 22.6462C43.8324 33.0307 35.3839 41.4791 24.9994 41.4791L23.6436 43.3857L24.9994 45.2923C37.4865 45.2923 47.6457 35.1333 47.6457 22.6462Z" fill="#FDAE02"/>
<path d="M24.9996 41.4791C14.6151 41.4791 6.16672 33.0307 6.16672 22.6462C6.16672 12.2616 14.6151 3.8132 24.9996 3.8132V0C12.5125 0 2.35352 10.159 2.35352 22.6462C2.35352 35.1333 12.5125 45.2923 24.9996 45.2923V41.4791Z" fill="#FDCB02"/>
<path d="M36.3975 15.0945L30.4611 17.0356L25.0003 12.416L23.6445 21.6924L25.0003 31.2677H36.3975V15.0945Z" fill="#FD9002"/>
<path d="M25.0002 12.416L19.5394 17.0356L13.603 15.0945V31.2677H25.0002V12.416Z" fill="#FDAE02"/>
</svg>
