<svg width="31" height="34" viewBox="0 0 31 34" fill="none" xmlns="http://www.w3.org/2000/svg">
<g clip-path="url(#clip0_210_353)">
<path d="M19.709 4.75005C19.709 4.75005 16.8965 7.9638 19.709 12.25C22.5215 16.5363 19.709 19.75 19.709 19.75M23.459 4.75005C23.459 4.75005 20.6465 7.9638 23.459 12.25C26.2715 16.5363 23.459 19.75 23.459 19.75M27.209 4.75005C27.209 4.75005 24.3965 7.9638 27.209 12.25C30.0215 16.5363 27.209 19.75 27.209 19.75M0.333984 27.875H12.834M13.459 21.625L10.959 11.625H9.16773C8.4078 11.6252 7.66583 11.8562 7.04013 12.2874C6.41443 12.7187 5.93452 13.3299 5.66398 14.04L1.58398 24.75M19.084 32.875C17.834 32.875 16.8965 31 16.8965 31C15.959 29.125 15.959 27.875 15.959 26V24.125H7.20898V16.625M9.32773 9.12505C9.32773 9.12505 7.06523 8.4288 6.65898 6.90505C6.50781 6.34068 6.58627 5.73942 6.8772 5.23275C7.16813 4.72607 7.64787 4.35522 8.21148 4.2013C8.49023 4.12671 8.78098 4.10801 9.06699 4.14627C9.35299 4.18453 9.6286 4.279 9.87794 4.42423C10.1273 4.56947 10.3454 4.7626 10.5198 4.9925C10.6942 5.2224 10.8213 5.48454 10.894 5.7638C11.299 7.28755 9.69148 9.0263 9.69148 9.0263L9.32773 9.12505Z" stroke="#767676" stroke-width="1.5"/>
</g>
<defs>
<clipPath id="clip0_210_353">
<rect width="30" height="30" fill="white" transform="translate(0.333984 3.5)"/>
</clipPath>
</defs>
</svg>
