<svg width="27" height="19" viewBox="0 0 27 19" fill="none" xmlns="http://www.w3.org/2000/svg">
<path d="M0.833984 15.75V3.25C0.833984 2.58696 1.09738 1.95107 1.56622 1.48223C2.03506 1.01339 2.67094 0.75 3.33398 0.75H23.334C23.997 0.75 24.6329 1.01339 25.1018 1.48223C25.5706 1.95107 25.834 2.58696 25.834 3.25V15.75C25.834 16.413 25.5706 17.0489 25.1018 17.5178C24.6329 17.9866 23.997 18.25 23.334 18.25H3.33398C2.67094 18.25 2.03506 17.9866 1.56622 17.5178C1.09738 17.0489 0.833984 16.413 0.833984 15.75Z" stroke="#767676" stroke-width="1.3" stroke-linecap="round" stroke-linejoin="round"/>
<path d="M21.459 9.5125L21.4715 9.49875M5.20898 9.5125L5.22148 9.49875M13.334 13.25C12.3394 13.25 11.3856 12.8549 10.6823 12.1517C9.97907 11.4484 9.58398 10.4946 9.58398 9.5C9.58398 8.50544 9.97907 7.55161 10.6823 6.84835C11.3856 6.14509 12.3394 5.75 13.334 5.75C14.3285 5.75 15.2824 6.14509 15.9856 6.84835C16.6889 7.55161 17.084 8.50544 17.084 9.5C17.084 10.4946 16.6889 11.4484 15.9856 12.1517C15.2824 12.8549 14.3285 13.25 13.334 13.25Z" stroke="#767676" stroke-width="1.3" stroke-linecap="round" stroke-linejoin="round"/>
</svg>
