<svg width="26" height="27" viewBox="0 0 26 27" fill="none" xmlns="http://www.w3.org/2000/svg">
<path d="M18.334 0.75C18.334 0.551088 18.413 0.360322 18.5537 0.21967C18.6943 0.0790176 18.8851 0 19.084 0H25.084C25.2829 0 25.4737 0.0790176 25.6143 0.21967C25.755 0.360322 25.834 0.551088 25.834 0.75V8.25C25.834 8.44891 25.755 8.63968 25.6143 8.78033C25.4737 8.92098 25.2829 9 25.084 9H22.834V26.25C22.834 26.4489 22.755 26.6397 22.6143 26.7803C22.4737 26.921 22.2829 27 22.084 27C21.8851 27 21.6943 26.921 21.5537 26.7803C21.413 26.6397 21.334 26.4489 21.334 26.25V9H19.084C18.8851 9 18.6943 8.92098 18.5537 8.78033C18.413 8.63968 18.334 8.44891 18.334 8.25V0.75ZM16.834 3H6.54398C5.67687 2.99983 4.8365 3.30016 4.1659 3.84987C3.49531 4.39959 3.03594 5.16471 2.86598 6.015L2.56898 7.5H1.45898C1.16062 7.5 0.874468 7.61853 0.663489 7.82951C0.452511 8.04048 0.333984 8.32663 0.333984 8.625C0.333984 8.92337 0.452511 9.20952 0.663489 9.4205C0.874468 9.63147 1.16062 9.75 1.45898 9.75H2.11898L1.95248 10.59C1.4854 10.7266 1.0752 11.0109 0.783384 11.4004C0.491573 11.7898 0.33389 12.2634 0.333984 12.75V20.25C0.333984 20.8467 0.571037 21.419 0.992994 21.841C1.41495 22.2629 1.98725 22.5 2.58398 22.5H3.33398V24C3.33398 24.3978 3.49202 24.7794 3.77332 25.0607C4.05463 25.342 4.43616 25.5 4.83398 25.5C5.23181 25.5 5.61334 25.342 5.89464 25.0607C6.17595 24.7794 6.33398 24.3978 6.33398 24V22.5H18.334V24C18.334 24.3978 18.492 24.7794 18.7733 25.0607C19.0546 25.342 19.4362 25.5 19.834 25.5V21H2.58398C2.38507 21 2.19431 20.921 2.05365 20.7803C1.913 20.6397 1.83398 20.4489 1.83398 20.25V12.75C1.83398 12.5511 1.913 12.3603 2.05365 12.2197C2.19431 12.079 2.38507 12 2.58398 12H19.834V10.5H3.49898L4.33748 6.309C4.4394 5.79913 4.71475 5.34029 5.11674 5.0105C5.51873 4.6807 6.02253 4.50031 6.54248 4.5H16.834V3ZM19.834 16.5C19.834 16.1022 19.6759 15.7206 19.3946 15.4393C19.1133 15.158 18.7318 15 18.334 15C17.9362 15 17.5546 15.158 17.2733 15.4393C16.992 15.7206 16.834 16.1022 16.834 16.5C16.834 16.8978 16.992 17.2794 17.2733 17.5607C17.5546 17.842 17.9362 18 18.334 18C18.7318 18 19.1133 17.842 19.3946 17.5607C19.6759 17.2794 19.834 16.8978 19.834 16.5ZM7.83398 16.5C7.83398 16.1022 7.67595 15.7206 7.39464 15.4393C7.11334 15.158 6.73181 15 6.33398 15C5.93616 15 5.55463 15.158 5.27332 15.4393C4.99202 15.7206 4.83398 16.1022 4.83398 16.5C4.83398 16.8978 4.99202 17.2794 5.27332 17.5607C5.55463 17.842 5.93616 18 6.33398 18C6.73181 18 7.11334 17.842 7.39464 17.5607C7.67595 17.2794 7.83398 16.8978 7.83398 16.5Z" fill="#757575"/>
</svg>
