<svg width="31" height="31" viewBox="0 0 31 31" fill="none" xmlns="http://www.w3.org/2000/svg">
<path d="M6.89648 5.5C5.81904 5.5 4.78573 5.92801 4.02386 6.68988C3.262 7.45175 2.83398 8.48506 2.83398 9.5625V20.1875C2.83398 21.2649 3.262 22.2983 4.02386 23.0601C4.78573 23.822 5.81904 24.25 6.89648 24.25H23.7715C24.305 24.25 24.8333 24.1449 25.3261 23.9408C25.819 23.7366 26.2669 23.4374 26.6441 23.0601C27.0213 22.6829 27.3206 22.235 27.5247 21.7422C27.7289 21.2493 27.834 20.721 27.834 20.1875V9.5625C27.834 9.02901 27.7289 8.50073 27.5247 8.00785C27.3206 7.51496 27.0213 7.06712 26.6441 6.68988C26.2669 6.31264 25.819 6.0134 25.3261 5.80924C24.8333 5.60508 24.305 5.5 23.7715 5.5H6.89648ZM4.70898 9.5625C4.70898 8.355 5.68898 7.375 6.89648 7.375H10.334V8.885C9.7582 8.63333 9.11992 8.56109 8.50246 8.6777C7.88499 8.79432 7.31703 9.09438 6.8727 9.53871C6.42836 9.98304 6.12831 10.551 6.01169 11.1685C5.89507 11.7859 5.96731 12.4242 6.21898 13H4.70898V9.5625ZM12.209 11.75C12.209 11.5028 12.2823 11.2611 12.4196 11.0555C12.557 10.85 12.7522 10.6898 12.9806 10.5952C13.209 10.5005 13.4604 10.4758 13.7028 10.524C13.9453 10.5722 14.1681 10.6913 14.3429 10.8661C14.5177 11.0409 14.6367 11.2637 14.685 11.5061C14.7332 11.7486 14.7084 11.9999 14.6138 12.2284C14.5192 12.4568 14.359 12.652 14.1534 12.7893C13.9479 12.9267 13.7062 13 13.459 13H12.209V11.75ZM10.334 13H9.08398C8.83676 13 8.59508 12.9267 8.38952 12.7893C8.18396 12.652 8.02375 12.4568 7.92914 12.2284C7.83453 11.9999 7.80977 11.7486 7.858 11.5061C7.90623 11.2637 8.02529 11.0409 8.2001 10.8661C8.37492 10.6913 8.59765 10.5722 8.84012 10.524C9.0826 10.4758 9.33393 10.5005 9.56234 10.5952C9.79075 10.6898 9.98597 10.85 10.1233 11.0555C10.2607 11.2611 10.334 11.5028 10.334 11.75V13ZM10.334 16.2V22.375H6.89648C6.31632 22.375 5.75992 22.1445 5.34969 21.7343C4.93945 21.3241 4.70898 20.7677 4.70898 20.1875V14.875H9.00899L6.85898 17.025C6.76688 17.1108 6.693 17.2143 6.64176 17.3293C6.59052 17.4443 6.56297 17.5685 6.56075 17.6943C6.55852 17.8202 6.58168 17.9453 6.62883 18.062C6.67598 18.1787 6.74616 18.2848 6.83519 18.3738C6.92421 18.4628 7.03025 18.533 7.14699 18.5802C7.26372 18.6273 7.38876 18.6505 7.51464 18.6482C7.64052 18.646 7.76466 18.6185 7.87966 18.5672C7.99466 18.516 8.09816 18.4421 8.18399 18.35L10.334 16.2ZM12.209 22.375V16.2L14.359 18.35C14.4448 18.4421 14.5483 18.516 14.6633 18.5672C14.7783 18.6185 14.9025 18.646 15.0283 18.6482C15.1542 18.6505 15.2792 18.6273 15.396 18.5802C15.5127 18.533 15.6188 18.4628 15.7078 18.3738C15.7968 18.2848 15.867 18.1787 15.9141 18.062C15.9613 17.9453 15.9844 17.8202 15.9822 17.6943C15.98 17.5685 15.9525 17.4443 15.9012 17.3293C15.85 17.2143 15.7761 17.1108 15.684 17.025L13.534 14.875H25.959V20.1875C25.959 20.4748 25.9024 20.7592 25.7925 21.0246C25.6825 21.29 25.5214 21.5312 25.3183 21.7343C25.1152 21.9374 24.874 22.0986 24.6086 22.2085C24.3432 22.3184 24.0588 22.375 23.7715 22.375H12.209ZM12.209 8.885V7.375H23.7715C24.979 7.375 25.959 8.355 25.959 9.5625V13H16.324C16.5757 12.4242 16.6479 11.7859 16.5313 11.1685C16.4147 10.551 16.1146 9.98304 15.6703 9.53871C15.2259 9.09438 14.658 8.79432 14.0405 8.6777C13.423 8.56109 12.7848 8.63333 12.209 8.885Z" fill="#767676"/>
</svg>
