<svg width="25" height="24" viewBox="0 0 25 24" fill="none" xmlns="http://www.w3.org/2000/svg">
<path d="M1.65239 12.8545L5.21239 15.4545L3.86039 19.6415C3.6419 20.2909 3.63913 20.9935 3.8525 21.6446C4.06586 22.2957 4.48393 22.8604 5.04439 23.2545C5.59524 23.6613 6.26278 23.8792 6.94754 23.8758C7.6323 23.8724 8.29763 23.6478 8.84439 23.2355L12.3254 20.6735L15.8074 23.2325C16.3572 23.637 17.0212 23.8567 17.7038 23.86C18.3863 23.8633 19.0524 23.6501 19.6062 23.2511C20.1599 22.852 20.5729 22.2876 20.7857 21.639C20.9985 20.9904 21.0001 20.2911 20.7904 19.6415L19.4384 15.4545L22.9984 12.8545C23.5475 12.4531 23.9557 11.8883 24.1647 11.2409C24.3737 10.5936 24.3728 9.89673 24.1621 9.24993C23.9513 8.60313 23.5416 8.03947 22.9914 7.63945C22.4412 7.23943 21.7786 7.02351 21.0984 7.02254H16.7254L15.3984 2.88654C15.1897 2.2355 14.7797 1.66756 14.2274 1.26461C13.6751 0.861661 13.0091 0.644531 12.3254 0.644531C11.6417 0.644531 10.9757 0.861661 10.4234 1.26461C9.87112 1.66756 9.46107 2.2355 9.25239 2.88654L7.92539 7.02254H3.55639C2.87613 7.02351 2.21358 7.23943 1.66337 7.63945C1.11316 8.03947 0.703429 8.60313 0.49271 9.24993C0.28199 9.89673 0.281058 10.5936 0.490045 11.2409C0.699032 11.8883 1.10725 12.4531 1.65639 12.8545H1.65239Z" fill="#FFE605"/>
</svg>
