<svg width="25" height="25" viewBox="0 0 25 25" fill="none" xmlns="http://www.w3.org/2000/svg">
<path d="M23.8159 1.35052C23.2697 0.806151 22.5299 0.500488 21.7587 0.500488C20.9875 0.500488 20.2477 0.806151 19.7014 1.35052L16.6369 4.40752L16.6279 4.41652C14.9862 3.61212 13.1384 3.32678 11.3304 3.5985C9.52252 3.87021 7.84022 4.68608 6.50743 5.93752C5.90235 5.81033 5.27237 5.88198 4.7113 6.14181C4.15024 6.40164 3.68811 6.83575 3.39373 7.37948C3.09936 7.92322 2.98849 8.54749 3.07763 9.15934C3.16677 9.77119 3.45115 10.3379 3.88843 10.775L14.3929 21.281C14.8302 21.7188 15.3973 22.0035 16.0095 22.0926C16.6218 22.1818 17.2465 22.0707 17.7905 21.7759C18.3344 21.481 18.7685 21.0183 19.028 20.4566C19.2875 19.8949 19.3585 19.2644 19.2304 18.659C20.4819 17.3259 21.2977 15.6433 21.5692 13.8351C21.8406 12.0268 21.5549 10.1788 20.7499 8.53702L20.7589 8.52652L23.8159 5.47702C24.0878 5.2066 24.3036 4.8851 24.4508 4.53102C24.598 4.17694 24.6738 3.79724 24.6738 3.41377C24.6738 3.0303 24.598 2.6506 24.4508 2.29652C24.3036 1.94243 24.0878 1.62094 23.8159 1.35052ZM19.9519 7.21402C19.395 6.44632 18.7201 5.7715 17.9524 5.21452L20.7604 2.41252C20.8904 2.27488 21.0467 2.16473 21.2201 2.08861C21.3935 2.0125 21.5803 1.97196 21.7696 1.9694C21.959 1.96684 22.1469 2.00231 22.3222 2.07371C22.4976 2.14511 22.6568 2.25099 22.7905 2.38507C22.9242 2.51914 23.0296 2.67869 23.1004 2.85426C23.1713 3.02983 23.2062 3.21783 23.2031 3.40714C23.2 3.59644 23.1589 3.78319 23.0822 3.95632C23.0056 4.12945 22.895 4.28543 22.7569 4.41502L19.9519 7.21402ZM7.92043 6.69202C9.35993 5.51417 11.1857 4.91322 13.0434 5.00584C14.9011 5.09846 16.658 5.87804 17.9732 7.19323C19.2884 8.50843 20.068 10.2654 20.1606 12.1231C20.2532 13.9807 19.6523 15.8065 18.4744 17.246L18.4504 17.222L7.94593 6.71752L7.92043 6.69202ZM6.84943 7.74202L17.4244 18.3185C17.6767 18.5799 17.8147 18.9307 17.8082 19.2939C17.8018 19.6571 17.6513 20.0028 17.3899 20.255C17.1286 20.5072 16.7777 20.6453 16.4145 20.6388C16.0514 20.6324 15.7057 20.4819 15.4534 20.2205L4.94743 9.71452C4.69768 9.45979 4.55718 9.11766 4.55583 8.76092C4.55447 8.40418 4.69238 8.06099 4.9402 7.80438C5.18802 7.54776 5.52619 7.39798 5.88276 7.38689C6.23933 7.37581 6.58615 7.50429 6.84943 7.74502M7.94743 17.2235C8.08804 17.3642 8.16702 17.5549 8.16702 17.7538C8.16702 17.9526 8.08804 18.1434 7.94743 18.284L4.94743 21.284C4.8068 21.4248 4.61599 21.504 4.41696 21.5042C4.21794 21.5043 4.02701 21.4254 3.88618 21.2848C3.74535 21.1441 3.66616 20.9533 3.66602 20.7543C3.66588 20.5553 3.7448 20.3643 3.88543 20.2235L6.88543 17.2235C6.9551 17.1537 7.03786 17.0983 7.12898 17.0604C7.2201 17.0226 7.31778 17.0032 7.41643 17.0032C7.51508 17.0032 7.61277 17.0226 7.70388 17.0604C7.795 17.0983 7.87777 17.1537 7.94743 17.2235ZM4.94743 15.284C5.01707 15.2143 5.07228 15.1315 5.10993 15.0405C5.14758 14.9494 5.16692 14.8518 5.16685 14.7532C5.16678 14.6547 5.1473 14.5571 5.10953 14.4661C5.07175 14.3751 5.01641 14.2924 4.94668 14.2228C4.87695 14.1531 4.79419 14.0979 4.70312 14.0603C4.61204 14.0226 4.51445 14.0033 4.4159 14.0034C4.31736 14.0034 4.21979 14.0229 4.12877 14.0607C4.03775 14.0985 3.95507 14.1538 3.88543 14.2235L0.885433 17.2235C0.815799 17.2933 0.760583 17.376 0.722935 17.4671C0.685287 17.5582 0.665946 17.6558 0.666016 17.7543C0.666085 17.8528 0.685565 17.9504 0.723341 18.0414C0.761117 18.1325 0.816451 18.2151 0.886183 18.2848C0.955915 18.3544 1.03868 18.4096 1.12975 18.4473C1.22082 18.4849 1.31842 18.5043 1.41696 18.5042C1.51551 18.5041 1.61308 18.4846 1.7041 18.4469C1.79511 18.4091 1.8778 18.3538 1.94743 18.284L4.94743 15.284ZM10.9474 20.2235C11.088 20.3642 11.167 20.5549 11.167 20.7538C11.167 20.9526 11.088 21.1434 10.9474 21.284L7.94743 24.284C7.8068 24.4248 7.61599 24.504 7.41696 24.5042C7.21794 24.5043 7.02701 24.4254 6.88618 24.2848C6.74535 24.1441 6.66616 23.9533 6.66602 23.7543C6.66588 23.5553 6.7448 23.3643 6.88543 23.2235L9.88543 20.2235C9.9551 20.1537 10.0379 20.0983 10.129 20.0604C10.2201 20.0226 10.3178 20.0032 10.4164 20.0032C10.5151 20.0032 10.6128 20.0226 10.7039 20.0604C10.795 20.0983 10.8778 20.1537 10.9474 20.2235Z" fill="#757575"/>
</svg>
