<svg width="25" height="22" viewBox="0 0 25 22" fill="none" xmlns="http://www.w3.org/2000/svg">
<path d="M10.0694 10.3442C11.4497 9.71338 12.1701 8.75879 12.1701 7.27295C12.1701 4.34277 9.88715 3.62891 7.2526 3.62891H0V18.3379H7.4566C10.2517 18.3379 12.8776 17.0554 12.8776 14.0671C12.8776 12.2202 11.9618 10.8547 10.0694 10.3442ZM3.38108 6.13989H6.55382C7.77344 6.13989 8.87153 6.46777 8.87153 7.8208C8.87153 9.07007 8.01649 9.57227 6.8099 9.57227H3.38108V6.13989ZM6.99653 15.8394H3.38108V11.7886H7.06597C8.55469 11.7886 9.49653 12.3821 9.49653 13.8887C9.49653 15.3745 8.3724 15.8394 6.99653 15.8394ZM22.5564 5.84936H16.3194V4.40088H22.5564V5.84936ZM25 13.1665C25 10.0164 23.0729 7.38916 19.579 7.38916C16.1849 7.38916 13.8802 9.82959 13.8802 13.0254C13.8802 16.3416 16.0634 18.616 19.579 18.616C22.2396 18.616 23.9627 17.4705 24.7917 15.0342H22.092C21.8012 15.9431 20.6033 16.4246 19.6745 16.4246C17.8819 16.4246 16.9401 15.4202 16.9401 13.7144H24.974C24.987 13.54 25 13.3533 25 13.1665ZM16.9444 11.8716C17.0443 10.4729 18.0165 9.59717 19.4835 9.59717C21.02 9.59717 21.7925 10.4604 21.9227 11.8716H16.9444Z" fill="#464646"/>
</svg>
