<svg width="66" height="43" viewBox="0 0 66 43" fill="none" xmlns="http://www.w3.org/2000/svg">
<path d="M16.417 25.5359V36.1653H53.7749C54.8422 36.1653 55.7075 35.3 55.7075 34.2326C55.7075 33.2943 55.7075 26.4725 55.7075 25.5359L36.0622 22.959L16.417 25.5359Z" fill="#8B9BA9"/>
<path d="M51.8422 25.0215V32.301H16.417V36.1662H53.7749C54.8422 36.1662 55.7075 35.3009 55.7075 34.2336C55.7075 33.3443 55.7075 26.4091 55.7075 25.5368L51.8422 25.0215Z" fill="#6C7A88"/>
<path d="M57.4477 0.0683594H22.216C21.1487 0.0683594 20.2834 0.933652 20.2834 2.00097V8.02361H7.39481C5.58692 8.02361 4.02048 9.27697 3.62378 11.0408L2.16105 17.5454C1.78536 19.2162 1.5957 20.9236 1.5957 22.6362V36.1656H20.2834C20.2834 35.8511 20.2834 31.0711 20.2834 25.5362H57.4478C58.5151 25.5362 59.3804 24.671 59.3804 23.6036V2.00097C59.3803 0.933523 58.5151 0.0683594 57.4477 0.0683594Z" fill="#FF7E40"/>
<path d="M64.5343 17.2366H59.3804V13.7686H61.9573C62.4911 13.7686 62.9236 13.336 62.9236 12.8023C62.9236 12.2686 62.4911 11.836 61.9573 11.836H59.3804V8.368H63.2457C63.7795 8.368 64.212 7.93536 64.212 7.4017C64.212 6.86804 63.7795 6.4354 63.2457 6.4354H59.3804V2.96727H64.5343C65.068 2.96727 65.5006 2.53462 65.5006 2.00097C65.5006 1.46731 65.068 1.03466 64.5343 1.03466H59.1197C58.7854 0.457586 58.1627 0.0683594 57.4478 0.0683594H55.5152V21.6712H20.2834C20.2834 14.8726 20.2834 8.20708 20.2834 8.02348H16.4182V25.5364H13.5192C10.702 25.5364 8.13925 26.6402 6.23525 28.4353H1.5957V36.1657H20.2834C20.2834 35.9035 20.2834 31.1016 20.2834 25.5364H32.1952H57.4478C58.1627 25.5364 58.7854 25.1472 59.1197 24.5701H63.2457C63.7795 24.5701 64.212 24.1374 64.212 23.6038C64.212 23.0701 63.7795 22.6375 63.2457 22.6375H59.3804V19.1693H64.5343C65.068 19.1693 65.5006 18.7367 65.5006 18.203C65.5006 17.6694 65.068 17.2366 64.5343 17.2366Z" fill="#FF6344"/>
<path d="M1.4663 36.166H8.53913V32.3008H1.4663C0.932646 32.3008 0.5 32.7334 0.5 33.2671V35.1997C0.5 35.7335 0.932646 36.166 1.4663 36.166Z" fill="#8B9BA9"/>
<path d="M16.4179 11.8887H7.16405L5.32666 20.0594H16.4179V11.8887Z" fill="#9DC6FB"/>
<path d="M12.7832 16.1941H6.19582L5.32666 20.0594H16.4179V11.8887H12.7832V16.1941Z" fill="#80B4FB"/>
<path d="M46.3667 42.9306C50.1024 42.9306 53.1308 39.9022 53.1308 36.1665C53.1308 32.4307 50.1024 29.4023 46.3667 29.4023C42.6309 29.4023 39.6025 32.4307 39.6025 36.1665C39.6025 39.9022 42.6309 42.9306 46.3667 42.9306Z" fill="#4D5967"/>
<path d="M47.7499 29.5449C46.9571 31.0097 47.1788 32.8784 48.417 34.1164L44.3173 38.2162C43.0792 36.978 41.2105 36.7561 39.7456 37.5491C40.3857 40.6177 43.1112 42.9304 46.3671 42.9304C50.0969 42.9304 53.1312 39.8961 53.1312 36.1663C53.1311 32.9104 50.8185 30.185 47.7499 29.5449Z" fill="#35404A"/>
<path d="M46.3662 39.0654C47.9672 39.0654 49.2651 37.7675 49.2651 36.1665C49.2651 34.5655 47.9672 33.2676 46.3662 33.2676C44.7652 33.2676 43.4673 34.5655 43.4673 36.1665C43.4673 37.7675 44.7652 39.0654 46.3662 39.0654Z" fill="#FFF9EB"/>
<path d="M13.5185 42.9306C17.2542 42.9306 20.2826 39.9022 20.2826 36.1665C20.2826 32.4307 17.2542 29.4023 13.5185 29.4023C9.7828 29.4023 6.75439 32.4307 6.75439 36.1665C6.75439 39.9022 9.7828 42.9306 13.5185 42.9306Z" fill="#4D5967"/>
<path d="M14.9018 29.5449C14.1089 31.0097 14.3306 32.8784 15.5688 34.1164L11.4691 38.2162C10.2311 36.978 8.36238 36.7561 6.89746 37.5491C7.53754 40.6177 10.263 42.9304 13.519 42.9304C17.2488 42.9304 20.2831 39.8961 20.2831 36.1663C20.2831 32.9104 17.9705 30.185 14.9018 29.5449Z" fill="#35404A"/>
<path d="M13.5181 39.0654C15.1191 39.0654 16.417 37.7675 16.417 36.1665C16.417 34.5655 15.1191 33.2676 13.5181 33.2676C11.917 33.2676 10.6191 34.5655 10.6191 36.1665C10.6191 37.7675 11.917 39.0654 13.5181 39.0654Z" fill="#FFF9EB"/>
<path d="M30.0606 10.8696V11.8359H31.2845C31.8182 11.8359 32.2505 12.2683 32.2505 12.8021C32.2505 13.3359 31.8182 13.7684 31.2845 13.7684H30.0606V15.7007C30.0606 16.2345 29.628 16.667 29.0945 16.667C28.5609 16.667 28.1284 16.2346 28.1284 15.7007V9.90355C28.1284 9.36989 28.5609 8.9375 29.0945 8.9375H32.0574C32.5911 8.9375 33.0235 9.36989 33.0235 9.90355C33.0235 10.4373 32.5911 10.8699 32.0574 10.8699H30.0606V10.8696Z" fill="#FFF9EB"/>
<path d="M39.2694 15.0206C39.6449 15.3994 39.6424 16.0112 39.2636 16.3869C39.075 16.5736 38.8292 16.667 38.5832 16.667C38.3346 16.667 38.086 16.5717 37.8971 16.3811L36.2645 14.7347H35.7491V15.7007C35.7491 16.2345 35.3165 16.667 34.7829 16.667C34.2494 16.667 33.8169 16.2346 33.8169 15.7007V9.90355C33.8169 9.36989 34.2494 8.9375 34.7829 8.9375H36.6672C38.2565 8.9375 39.5495 10.2379 39.5495 11.836C39.5495 12.7789 39.0992 13.6178 38.4036 14.1476L39.2694 15.0206ZM37.617 11.836C37.617 11.3031 37.1908 10.8697 36.6672 10.8697H35.7491V12.8021H36.6672C37.1908 12.8021 37.617 12.3687 37.617 11.836Z" fill="#FFF9EB"/>
<path d="M45.5381 15.7007C45.5381 16.2345 45.1057 16.667 44.5721 16.667H41.6091C41.0756 16.667 40.6431 16.2346 40.6431 15.7007V9.90355C40.6431 9.36989 41.0756 8.9375 41.6091 8.9375H44.5721C45.1057 8.9375 45.5381 9.36989 45.5381 9.90355C45.5381 10.4373 45.1057 10.8699 44.5721 10.8699H42.5753V11.8362H43.7991C44.3328 11.8362 44.7652 12.2685 44.7652 12.8023C44.7652 13.3361 44.3328 13.7686 43.7991 13.7686H42.5753V14.7348H44.5721C45.1057 14.7347 45.5381 15.1671 45.5381 15.7007Z" fill="#FFF9EB"/>
<path d="M51.5342 15.7007C51.5342 16.2345 51.1018 16.667 50.5681 16.667H47.6052C47.0717 16.667 46.6392 16.2346 46.6392 15.7007V9.90355C46.6392 9.36989 47.0717 8.9375 47.6052 8.9375H50.5681C51.1018 8.9375 51.5342 9.36989 51.5342 9.90355C51.5342 10.4373 51.1018 10.8699 50.5681 10.8699H48.5714V11.8362H49.7952C50.3289 11.8362 50.7613 12.2685 50.7613 12.8023C50.7613 13.3361 50.3289 13.7686 49.7952 13.7686H48.5714V14.7348H50.5681C51.1018 14.7347 51.5342 15.1671 51.5342 15.7007Z" fill="#FFF9EB"/>
</svg>
