<svg width="45" height="40" viewBox="0 0 45 40" fill="none" xmlns="http://www.w3.org/2000/svg">
<path d="M43.6646 35.6576C44.0351 35.4723 44.4856 35.6225 44.6708 35.993C44.8561 36.3635 44.7059 36.814 44.3354 36.9992L43.6646 35.6576ZM22.844 24.4533L22.3709 23.8714L22.844 24.4533ZM5.43779 0.5036C5.71194 0.193096 6.1859 0.16363 6.4964 0.437784L11.5563 4.90539C11.8668 5.17954 11.8963 5.6535 11.6222 5.964C11.348 6.27451 10.874 6.30397 10.5635 6.02982L6.06581 2.05862L2.09461 6.55634C1.82046 6.86685 1.3465 6.89631 1.036 6.62216C0.725494 6.348 0.696026 5.87405 0.970181 5.56354L5.43779 0.5036ZM44.3354 36.9992C37.0196 40.6571 28.021 40.5254 22.5574 37.9727C19.8303 36.6986 17.8036 34.7259 17.5457 32.1446C17.2884 29.5695 18.8303 26.75 22.3709 23.8714L23.3172 25.0352C19.9199 27.7973 18.8562 30.1731 19.0383 31.9955C19.2197 33.8117 20.6773 35.4387 23.1924 36.6137C28.2131 38.9595 36.7303 39.1247 43.6646 35.6576L44.3354 36.9992ZM22.3709 23.8714C24.89 21.8232 26.668 20.7316 27.8267 20.3801C28.3654 20.2167 29.0462 20.1291 29.5477 20.5464C30.0827 20.9916 30.037 21.677 29.9332 22.116C29.7097 23.0604 28.9146 24.2916 27.8515 25.4555C26.7654 26.6445 25.3139 27.8572 23.6572 28.7393C22.0017 29.6206 20.1021 30.1919 18.141 30.0335C16.1607 29.8736 14.1896 28.9746 12.4129 27.0438C8.90763 23.2344 6.14367 15.3977 5.25145 1.04654L6.74855 0.953461C7.63745 15.251 10.3852 22.6249 13.5167 26.0281C15.0583 27.7034 16.6869 28.4112 18.2618 28.5384C19.8559 28.6671 21.4671 28.2059 22.9523 27.4152C24.4362 26.6252 25.7553 25.5262 26.744 24.4439C27.7556 23.3365 28.3395 22.3368 28.4735 21.7706C28.5483 21.4542 28.426 21.5644 28.5883 21.6994C28.7171 21.8066 28.729 21.6739 28.2621 21.8155C27.4096 22.0741 25.8293 22.9928 23.3172 25.0352L22.3709 23.8714Z" fill="#4F4F4F"/>
</svg>
