<svg width="25" height="52" viewBox="0 0 25 52" fill="none" xmlns="http://www.w3.org/2000/svg">
<path d="M1.4875 49.7795C1.07393 49.8025 0.757301 50.1564 0.780296 50.57C0.80329 50.9835 1.1572 51.3002 1.57077 51.2772L1.4875 49.7795ZM14.0051 29.721L14.1271 28.981L14.0051 29.721ZM17.2342 0.290791C16.8421 0.157233 16.416 0.366818 16.2825 0.758908L14.106 7.14841C13.9725 7.5405 14.1821 7.96662 14.5742 8.10017C14.9662 8.23373 15.3924 8.02415 15.5259 7.63206L17.4605 1.9525L23.1401 3.88711C23.5322 4.02066 23.9583 3.81108 24.0919 3.41899C24.2254 3.0269 24.0158 2.60077 23.6237 2.46722L17.2342 0.290791ZM1.57077 51.2772C9.73747 50.8231 17.4849 46.2439 20.9619 41.3167C22.6974 38.8573 23.4783 36.139 22.4214 33.7699C21.3671 31.4064 18.6294 29.7235 14.1271 28.981L13.883 30.461C18.203 31.1735 20.3054 32.7084 21.0516 34.381C21.7952 36.0478 21.3369 38.1836 19.7364 40.4518C16.5412 44.9796 9.22834 49.3491 1.4875 49.7795L1.57077 51.2772ZM14.1271 28.981C10.9237 28.4527 8.83832 28.3871 7.65794 28.6569C7.10915 28.7823 6.47463 29.044 6.24626 29.6552C6.00266 30.3071 6.38239 30.8796 6.6904 31.2092C7.35302 31.9182 8.65421 32.5928 10.1548 33.0758C11.6877 33.5692 13.5496 33.9019 15.4257 33.8456C17.3003 33.7895 19.233 33.3429 20.8571 32.2323C22.4971 31.1109 23.7624 29.3524 24.3469 26.7944C25.5002 21.7478 24.0115 13.5724 17.6654 0.669724L16.3194 1.33174C22.6417 14.1862 23.9149 21.9518 22.8846 26.4602C22.3774 28.6797 21.3146 30.1023 20.0104 30.9941C18.6902 31.8969 17.0625 32.2959 15.3807 32.3463C13.7004 32.3967 12.0098 32.097 10.6144 31.6479C9.18661 31.1883 8.18362 30.6101 7.78635 30.185C7.5644 29.9475 7.72526 29.9825 7.65138 30.1802C7.59273 30.3372 7.51651 30.2279 7.99216 30.1192C8.86061 29.9207 10.6885 29.9342 13.883 30.461L14.1271 28.981Z" fill="#4F4F4F"/>
</svg>
